<svg xmlns="http://www.w3.org/2000/svg" viewBox="0 0 24.56 37.71"><defs><style>.cls-1,.cls-2{fill:#8047f8;}.cls-2{fill-rule:evenodd;}</style></defs><g id="Camada_2" data-name="Camada 2"><g id="Camada_1-2" data-name="Camada 1"><path class="cls-1" d="M24.22,4.1c-.33-.49-.8-.51-1.34-.52h-.34c-.22,0-.48,0-.61-.18a1.8,1.8,0,0,1-.12-1c0-.11,0-.21,0-.3,0-.79-.07-1.63-.37-1.91S20.53,0,19.89.07l-.58,0H5.8c-.28,0-.56,0-.84,0a4,4,0,0,0-1.45,0C3,.27,2.93,1.25,2.9,2.17v0c0,.76-.21,1.35-.84,1.29S.61,3.41.28,4.07a5.43,5.43,0,0,0-.16,3l.06.66H24.43c0-.17,0-.34,0-.51C24.58,6,24.68,4.81,24.22,4.1Z"/><path class="cls-2" d="M2.07,9.21q.57,7.7,1.13,15.39h0q.3,4.18.61,8.36h.77c0,.44.12,1,.18,1.54.13,1.15.27,2.43.39,3.21h.09c.78-.29,6.23-2.62,6.23-11.89a.25.25,0,0,1,0-.08H10.13a.3.3,0,0,1-.18-.06.25.25,0,0,1-.1-.16,5.72,5.72,0,0,1-.32-1,4.3,4.3,0,0,0-1.8,1.95,3.87,3.87,0,0,1,1.49-4.77,11,11,0,0,1,2.85-7.33l0,0a.32.32,0,0,1,.2-.08.2.2,0,0,1,.11,0,.26.26,0,0,1,.1.07,10.68,10.68,0,0,1,2.82,7.37A3.8,3.8,0,0,1,17,23.86a3.76,3.76,0,0,1-.17,2.66A4.23,4.23,0,0,0,15,24.57a4,4,0,0,1-.27,1,.26.26,0,0,1-.22.21H13.09v.05h0v0c0,9.54,5.81,11.7,6.3,11.87h.17c0-.75.18-1.79.31-2.8.1-.7.19-1.38.25-1.95h.78c.25-3.51.51-7,.76-10.5h0q.49-6.7,1-13.44H2.12C2.06,9,2.06,9.12,2.07,9.21Zm10.22,5.07h0Z"/></g></g></svg>